<?xml version="1.0" encoding="UTF-8"?>
<svg version="1.1" xmlns="http://www.w3.org/2000/svg" width="500" height="500">
<path d="M0 0 C0.73391464 -0.00696899 1.46782928 -0.01393799 2.22398376 -0.02111816 C4.58167319 -0.03842196 6.9391247 -0.04483887 9.296875 -0.046875 C10.10266998 -0.04788208 10.90846497 -0.04888916 11.73867798 -0.04992676 C24.09540666 -0.03947722 35.93296533 0.60930324 48.046875 3.203125 C49.45819918 3.47335781 50.86965759 3.74289056 52.28125 4.01171875 C77.66330155 9.13462065 100.88102552 21.18559072 121.046875 37.203125 C122.10914307 38.0374707 122.10914307 38.0374707 123.19287109 38.88867188 C131.86158304 45.72692362 140.11096219 52.55000361 147.046875 61.203125 C147.80613281 62.12738281 148.56539063 63.05164063 149.34765625 64.00390625 C163.75365866 82.08608153 174.78472414 101.16908165 182.296875 123.015625 C182.61438721 123.92666992 182.93189941 124.83771484 183.2590332 125.77636719 C189.10016437 143.52554199 190.7670818 160.78965488 190.609375 179.390625 C190.60511505 180.46718353 190.6008551 181.54374207 190.59646606 182.65292358 C190.50831151 198.66598364 189.79789477 213.7995678 185.046875 229.203125 C184.79518555 230.06421875 184.54349609 230.9253125 184.28417969 231.8125 C176.24788803 258.82252681 161.26053508 283.67355185 142.046875 304.203125 C141.15613281 305.16347656 140.26539063 306.12382812 139.34765625 307.11328125 C129.71889586 317.10751284 118.60565262 325.55565092 107.046875 333.203125 C106.34304688 333.67878906 105.63921875 334.15445312 104.9140625 334.64453125 C67.42934941 358.61123805 17.77782538 366.35497012 -25.5546875 357.45703125 C-40.73214645 354.03030071 -54.68838693 349.01276558 -68.7109375 342.27734375 C-70.7411699 341.30467143 -72.78156174 340.35952637 -74.828125 339.421875 C-92.20100724 331.20077894 -106.7472278 318.5018229 -120.328125 305.078125 C-120.894104 304.5214917 -121.46008301 303.9648584 -122.04321289 303.39135742 C-125.953125 299.44959267 -125.953125 299.44959267 -125.953125 297.203125 C-126.5203125 296.99171875 -127.0875 296.7803125 -127.671875 296.5625 C-130.71692957 294.74798118 -132.45409183 292.30453779 -134.453125 289.453125 C-135.09181519 288.54904907 -135.09181519 288.54904907 -135.7434082 287.62670898 C-141.92370562 278.61642141 -146.94823012 268.89860663 -151.953125 259.203125 C-152.32099121 258.49478516 -152.68885742 257.78644531 -153.06787109 257.05664062 C-173.67833573 216.87182146 -175.60880933 167.4220251 -161.9715271 124.85409546 C-158.09136973 113.01301756 -153.37995931 101.84664237 -147.05664062 91.09130859 C-146.0533672 89.37464562 -145.10173875 87.62806043 -144.15625 85.87890625 C-135.53027951 70.16731715 -122.7856818 55.5468695 -108.953125 44.203125 C-108.169375 43.53152344 -107.385625 42.85992187 -106.578125 42.16796875 C-76.73329822 16.98639616 -39.55477646 0.25439594 0 0 Z M-107.97265625 66.96875 C-113.05431599 72.37991456 -117.54180676 78.24211201 -121.953125 84.203125 C-122.35660156 84.74050293 -122.76007813 85.27788086 -123.17578125 85.83154297 C-141.94095642 110.98338048 -151.62948761 143.01491896 -152.953125 174.203125 C-152.994375 175.03070313 -153.035625 175.85828125 -153.078125 176.7109375 C-153.50968627 193.91944319 -150.47864246 210.68096954 -145.953125 227.203125 C-145.75847656 227.93402344 -145.56382812 228.66492188 -145.36328125 229.41796875 C-139.52954527 251.02290819 -127.51540667 270.33687178 -112.953125 287.203125 C-111.86064453 288.47736328 -111.86064453 288.47736328 -110.74609375 289.77734375 C-93.21628018 309.75595581 -69.95267434 325.32018328 -44.953125 334.203125 C-44.045625 334.56792969 -43.138125 334.93273437 -42.203125 335.30859375 C-27.92933346 340.72350595 -11.17578136 342.70860368 4.046875 343.203125 C4.93890625 343.24308594 5.8309375 343.28304688 6.75 343.32421875 C54.18644745 344.45050312 94.25487126 325.71225527 128.09179688 293.49560547 C157.85328112 264.41534426 173.51227032 221.64359017 174.359375 180.453125 C174.29079578 178.36831677 174.18316231 176.28460386 174.046875 174.203125 C173.99104248 173.17832031 173.99104248 173.17832031 173.93408203 172.1328125 C172.55932887 148.6864728 166.28174868 127.26053948 156.046875 106.203125 C155.46800537 104.98810303 155.46800537 104.98810303 154.87744141 103.74853516 C150.02957437 93.65881971 144.51101528 85.58245445 137.046875 77.203125 C135.62503045 75.39468403 134.20831381 73.58219902 132.796875 71.765625 C123.76881947 60.75076147 113.04348204 51.81175854 101.046875 44.203125 C100.1794165 43.6469751 100.1794165 43.6469751 99.29443359 43.07958984 C33.24004169 0.98628064 -53.21156115 10.33312682 -107.97265625 66.96875 Z " fill="#535353" transform="translate(309.953125,77.796875)"/>
<path d="M0 0 C2.69921875 1.421875 2.69921875 1.421875 5 4 C5.61826669 7.26917026 5.47149797 10.43795002 5.3125 13.75 C5.28994141 14.63816406 5.26738281 15.52632812 5.24414062 16.44140625 C5.18532552 18.62932812 5.10321268 20.81379671 5 23 C5.61302979 23.03520752 6.22605957 23.07041504 6.85766602 23.10668945 C28.66968025 24.52443415 47.64644748 34.40622961 62.0546875 50.5703125 C64.753976 53.94171299 66.8081428 56.68440775 67.4375 61 C66.8789517 64.8300455 65.8386597 66.38544501 63 69 C59.6195762 70.15078257 57.8489449 70.31835434 54.5 69.0625 C52.23184509 67.1912722 50.97725967 65.68140171 49.3125 63.3125 C38.5163158 48.3786919 22.33808894 44.85290865 5 41 C5 74.66 5 108.32 5 143 C8.3 143.99 11.6 144.98 15 146 C17.71422961 147.19249821 20.31459003 148.39205129 22.9375 149.75 C23.96544678 150.27605835 23.96544678 150.27605835 25.01416016 150.81274414 C35.11799833 156.0588312 43.85639138 161.99583673 52 170 C52.6496875 170.63679687 53.299375 171.27359375 53.96875 171.9296875 C65.46780822 184.08439377 67.68482274 198.34094339 67.3828125 214.35546875 C66.61237573 230.79237697 58.55654152 246.17273351 46.54296875 257.26953125 C34.8908911 266.91695038 20.80575283 271.53723397 6 274 C5.98582031 275.31355469 5.97164063 276.62710937 5.95703125 277.98046875 C5.91012012 279.71618051 5.86187279 281.45185652 5.8125 283.1875 C5.80379883 284.48397461 5.80379883 284.48397461 5.79492188 285.80664062 C5.64039236 290.28799647 5.4485567 292.40868656 2.66796875 296.07421875 C0 298 0 298 -3.5 298.625 C-8.03469977 297.81523218 -9.24755254 296.67771843 -12 293 C-12.59998169 289.70413976 -12.474195 286.52339228 -12.3125 283.1875 C-12.28994141 282.30384766 -12.26738281 281.42019531 -12.24414062 280.50976562 C-12.18547428 278.3391109 -12.09579979 276.1693331 -12 274 C-12.7528125 273.98582031 -13.505625 273.97164063 -14.28125 273.95703125 C-23.87188229 273.52638393 -32.02829494 271.14763602 -41 268 C-41.9178125 267.71382813 -42.835625 267.42765625 -43.78125 267.1328125 C-56.01732521 262.96142322 -66.76017602 253.02702349 -73.18359375 241.9609375 C-74.56344633 238.64665045 -74.56238032 235.51848201 -74 232 C-72.5 229.5 -72.5 229.5 -70 228 C-66.8227169 227.54610241 -65.01423962 227.32209872 -62 228 C-59.26976817 230.06432163 -57.4851944 232.32751554 -55.4921875 235.08984375 C-44.47141688 250.08321773 -29.91491562 253.41701688 -12 257 C-12 223.01 -12 189.02 -12 154 C-13.65 153.67 -15.3 153.34 -17 153 C-19.49527152 152.02836493 -21.9312222 151.02408554 -24.375 149.9375 C-25.07326904 149.62731934 -25.77153809 149.31713867 -26.4909668 148.99755859 C-47.44324857 139.55075603 -63.53415983 128.71260514 -73 107 C-74.81676737 101.2594497 -74.2679128 95.0163774 -74.3125 89.0625 C-74.34150391 87.80630859 -74.37050781 86.55011719 -74.40039062 85.25585938 C-74.51380591 68.35698185 -68.57159863 55.35456686 -57.15234375 43.05859375 C-45.13957193 31.56906426 -29.22229399 25.47500256 -13 23 C-12.99589111 22.44538086 -12.99178223 21.89076172 -12.98754883 21.31933594 C-12.95455819 18.795156 -12.88391622 16.27337304 -12.8125 13.75 C-12.80669922 12.87730469 -12.80089844 12.00460938 -12.79492188 11.10546875 C-12.57258547 4.63300907 -12.57258547 4.63300907 -9.66796875 1.421875 C-6.13439471 -0.46131819 -3.95312833 -0.56473262 0 0 Z M-46.7734375 57.359375 C-55.29100931 67.4609163 -58.37126284 79.49033123 -58 92.5 C-56.82179392 103.93955902 -50.58607771 113.48920029 -41.89453125 120.76171875 C-32.95361908 127.42621777 -22.5476215 132.48412617 -12 136 C-12 104.65 -12 73.3 -12 41 C-24.77357503 41 -37.82494848 48.78981222 -46.7734375 57.359375 Z M5 162 C5 193.35 5 224.7 5 257 C20.98404795 253.31137355 33.50203848 248.58615071 43.171875 234.93359375 C49.99230327 223.67425039 52.66243709 211.66108806 49.76953125 198.65234375 C45.73426038 184.7439736 35.49085078 176.9739504 23.36328125 169.828125 C14.57122204 164.46520935 14.57122204 164.46520935 5 162 Z " fill="#545454" transform="translate(324,109)"/>
<path d="M0 0 C1.13532669 -0.00700928 2.27065338 -0.01401855 3.44038391 -0.02124023 C7.19813399 -0.03886417 10.95513271 -0.02718106 14.71289062 -0.01367188 C17.32076156 -0.0163655 19.92863153 -0.02024684 22.53649902 -0.02526855 C28.00407064 -0.03254347 33.47142606 -0.02296159 38.93896484 -0.00390625 C45.25799114 0.01786251 51.57650118 0.01081101 57.89551497 -0.01121187 C63.97710989 -0.03155803 70.05847614 -0.02939571 76.14009094 -0.01768494 C78.72691418 -0.01501305 81.31375057 -0.01830354 83.90055847 -0.02760315 C87.51348981 -0.03774065 91.12542432 -0.02230505 94.73828125 0 C95.81165237 -0.00809692 96.8850235 -0.01619385 97.99092102 -0.02453613 C105.22347953 0.05835386 105.22347953 0.05835386 108.53161621 2.41125488 C110.06123627 4.82008887 110.40804137 6.17782385 110.36914062 9.01757812 C110.38460937 10.14679688 110.38460937 10.14679688 110.40039062 11.29882812 C109.60752894 14.61019164 108.67875391 15.51925018 105.86914062 17.51757812 C102.16639828 18.13627223 98.48476667 18.06341768 94.73828125 18.03515625 C93.60295456 18.04216553 92.46762787 18.0491748 91.29789734 18.05639648 C87.54014726 18.07402042 83.78314854 18.06233731 80.02539062 18.04882812 C77.41751969 18.05152175 74.80964972 18.05540309 72.20178223 18.0604248 C66.73421061 18.06769972 61.26685519 18.05811784 55.79931641 18.0390625 C49.48029011 18.01729374 43.16178007 18.02434524 36.84276628 18.04636812 C30.76117136 18.06671428 24.67980511 18.06455196 18.59819031 18.05284119 C16.01136707 18.0501693 13.42453068 18.05345979 10.83772278 18.0627594 C7.22479144 18.0728969 3.61285693 18.0574613 0 18.03515625 C-1.61005669 18.04730164 -1.61005669 18.04730164 -3.25263977 18.05969238 C-10.48519828 17.97680239 -10.48519828 17.97680239 -13.79333496 15.62390137 C-15.32295502 13.21506738 -15.66976012 11.8573324 -15.63085938 9.01757812 C-15.64117187 8.26476562 -15.65148438 7.51195312 -15.66210938 6.73632812 C-13.77452731 -1.14710285 -6.57866944 -0.04962588 0 0 Z " fill="#575757" transform="translate(15.130859375,217.482421875)"/>
<path d="M0 0 C1.51498581 -0.00810448 1.51498581 -0.00810448 3.06057739 -0.01637268 C6.4065664 -0.02890281 9.75170216 -0.01233995 13.09765625 0.00561523 C15.41788783 0.00546035 17.73811967 0.00397307 20.05834961 0.00120544 C24.92410704 -0.00018048 29.7895704 0.01241209 34.65527344 0.03515625 C40.90014988 0.06354113 47.14453746 0.06080597 53.38945007 0.04806614 C58.18147984 0.0411195 62.9733961 0.04888668 67.76541138 0.06132317 C70.06836512 0.06584753 72.37133101 0.06616592 74.67428589 0.06225777 C77.88988323 0.05935554 81.10480091 0.07580569 84.3203125 0.09765625 C85.27729034 0.0931546 86.23426819 0.08865295 87.22024536 0.08401489 C88.0951059 0.09391953 88.96996643 0.10382416 89.87133789 0.11402893 C91.01174278 0.11767377 91.01174278 0.11767377 92.17518616 0.12139225 C94.70184715 0.605496 95.59246835 1.49910729 97.16015625 3.50170898 C97.59375 5.62280273 97.59375 5.62280273 97.59765625 7.93920898 C97.61699219 8.70104492 97.63632813 9.46288086 97.65625 10.24780273 C96.93232653 13.53680936 95.88673856 14.49540602 93.16015625 16.50170898 C89.95071719 17.11286719 86.7729945 17.05821917 83.51391602 17.03515625 C82.53625275 17.04377182 81.55858948 17.05238739 80.55130005 17.06126404 C77.31778529 17.08397671 74.08513351 17.07717495 70.8515625 17.06811523 C68.60480999 17.07334865 66.35805969 17.07962409 64.11131287 17.0868988 C59.40117051 17.09731299 54.69133008 17.09272703 49.98120117 17.078125 C43.94373429 17.06094075 37.90721937 17.08442353 31.86985874 17.1196146 C27.2295653 17.14157099 22.58950021 17.14015123 17.94917107 17.13184929 C15.72321466 17.13102872 13.49724166 17.13791223 11.27133369 17.15262032 C8.1588904 17.17003191 5.04816505 17.15555053 1.93579102 17.1328125 C1.01562698 17.1445047 0.09546295 17.1561969 -0.85258484 17.16824341 C-5.31567873 17.10187328 -7.2539642 16.94244885 -10.91957092 14.18492126 C-13.42474652 10.68441976 -13.4535598 8.72100686 -12.83984375 4.50170898 C-10.4698352 -1.14612465 -5.28364748 -0.0533786 0 0 Z " fill="#4D4D4D" transform="translate(27.83984375,249.498291015625)"/>
<path d="M0 0 C0.832966 -0.00700928 1.66593201 -0.01401855 2.5241394 -0.02124023 C5.27554736 -0.03883507 8.02592546 -0.02719247 10.77734375 -0.01367188 C12.69018755 -0.01636637 14.60303003 -0.02024843 16.51586914 -0.02526855 C20.52405849 -0.03116561 24.53189118 -0.02259395 28.54003906 -0.00390625 C33.67849617 0.01888341 38.81611762 0.00576144 43.95454407 -0.01819611 C47.90423889 -0.03264846 51.8537355 -0.02805067 55.80343628 -0.01768494 C57.69807026 -0.01501609 59.59272222 -0.01829294 61.48733521 -0.02760315 C64.13527103 -0.03775953 66.78185259 -0.02228111 69.4296875 0 C70.60493484 -0.01214539 70.60493484 -0.01214539 71.80392456 -0.02453613 C75.35446433 0.03082905 77.3347729 0.22823953 80.19946289 2.40905762 C81.94942872 4.84398268 82.25510031 6.10612472 82.21484375 9.08007812 C82.2303125 10.22669922 82.2303125 10.22669922 82.24609375 11.39648438 C81.71484375 13.51757812 81.71484375 13.51757812 80.19273376 15.12390137 C76.70900889 17.08330488 73.43051816 16.95226788 69.53735352 16.9375 C68.71574738 16.94596954 67.89414124 16.95443909 67.04763794 16.96316528 C64.33368419 16.98655039 61.62029685 16.98755711 58.90625 16.98632812 C57.01822177 16.99342871 55.1301957 17.00112755 53.24217224 17.00939941 C49.28532919 17.02284762 45.32868568 17.02441142 41.37182617 17.01855469 C36.30287766 17.01265772 31.23488667 17.04324829 26.16612339 17.08367157 C22.267012 17.10952937 18.36813177 17.11242774 14.46894646 17.10877991 C12.6002353 17.1104729 10.73151366 17.12013269 8.86288643 17.13792419 C6.24851643 17.160077 3.63609223 17.15043196 1.02172852 17.1328125 C-0.13409981 17.15270737 -0.13409981 17.15270737 -1.3132782 17.17300415 C-5.27502711 17.11100957 -7.10295452 16.65897847 -10.2691803 14.20178223 C-12.28515625 11.51757812 -12.28515625 11.51757812 -12.84765625 7.95507812 C-11.60656855 0.37065328 -6.80155969 -0.07028952 0 0 Z " fill="#4D4D4D" transform="translate(43.28515625,280.482421875)"/>
<path d="M0 0 C0.33 0 0.66 0 1 0 C0.04892966 21.00917431 0.04892966 21.00917431 -1 30 C-1.33 30 -1.66 30 -2 30 C-3.33257403 10.99544419 -3.33257403 10.99544419 -2 3 C-2.66 2.67 -3.32 2.34 -4 2 C-3.01 2 -2.02 2 -1 2 C-0.67 1.34 -0.34 0.68 0 0 Z " fill="#616161" transform="translate(158,232)"/>
<path d="M0 0 C1.51980469 0.30744141 1.51980469 0.30744141 3.0703125 0.62109375 C4.4218645 0.89328131 5.77342759 1.16541379 7.125 1.4375 C7.79015625 1.57220703 8.4553125 1.70691406 9.140625 1.84570312 C13.08346807 2.63813727 17.02912121 3.36292755 21 4 C21 4.66 21 5.32 21 6 C23.31 6 25.62 6 28 6 C28 6.33 28 6.66 28 7 C21.55637696 7.2408831 15.7896034 6.35299608 9.5 5 C8.5821875 4.80921875 7.664375 4.6184375 6.71875 4.421875 C4.47758423 3.95496547 2.23819917 3.48089308 0 3 C0 2.01 0 1.02 0 0 Z " fill="#6F6F6F" transform="translate(275,430)"/>
<path d="M0 0 C-1.32 0.33 -2.64 0.66 -4 1 C-4 1.66 -4 2.32 -4 3 C-13.12752383 3.74440282 -21.87876505 4.25610227 -31 3 C-31 2.67 -31 2.34 -31 2 C-27.33385091 1.66080904 -23.6670121 1.32971919 -20 1 C-18.97003906 0.90460938 -17.94007813 0.80921875 -16.87890625 0.7109375 C-11.22521274 0.20678649 -5.67585202 -0.109151 0 0 Z " fill="#979797" transform="translate(347,419)"/>
<path d="M0 0 C-3.35585653 2.23723768 -5.88111626 2.79601813 -9.8125 3.625 C-11.61654297 4.01558594 -11.61654297 4.01558594 -13.45703125 4.4140625 C-16.72162686 4.95396255 -19.7004463 5.11116414 -23 5 C-17.88567679 -1.18121845 -7.36482527 -0.24146968 0 0 Z " fill="#6A6A6A" transform="translate(369,431)"/>
<path d="M0 0 C1.1446875 0.3403125 1.1446875 0.3403125 2.3125 0.6875 C1.6525 2.3375 0.9925 3.9875 0.3125 5.6875 C-0.3475 5.6875 -1.0075 5.6875 -1.6875 5.6875 C-1.6875 6.3475 -1.6875 7.0075 -1.6875 7.6875 C-3.0075 7.6875 -4.3275 7.6875 -5.6875 7.6875 C-5.91482116 4.88387237 -6.02831872 3.22563483 -4.5 0.8125 C-2.6875 -0.3125 -2.6875 -0.3125 0 0 Z " fill="#535353" transform="translate(5.6875,219.3125)"/>
<path d="M0 0 C1.65 0.33 3.3 0.66 5 1 C3 4 3 4 0 5 C0 7.31 0 9.62 0 12 C-0.99 11.67 -1.98 11.34 -3 11 C-3.36923077 4.6 -3.36923077 4.6 -1.5 1.5625 C-1.005 1.046875 -0.51 0.53125 0 0 Z " fill="#686868" transform="translate(18,250)"/>
<path d="M0 0 C7.2139738 -0.61135371 7.2139738 -0.61135371 10.8125 2.1875 C12.77679555 4.71302284 14.47469433 7.1902264 16 10 C12.125 8.25 12.125 8.25 11 6 C9.35 6 7.7 6 6 6 C6.33 4.35 6.66 2.7 7 1 C4.69 1 2.38 1 0 1 C0 0.67 0 0.34 0 0 Z " fill="#979797" transform="translate(254,337)"/>
<path d="M0 0 C0.33 0 0.66 0 1 0 C0.51358785 6.84817102 -0.35993952 13.33042073 -2 20 C-2.66 19.34 -3.32 18.68 -4 18 C-3.828125 15.13671875 -3.828125 15.13671875 -3.25 11.6875 C-2.97929687 9.99173828 -2.97929687 9.99173828 -2.703125 8.26171875 C-2.06690994 5.3103878 -1.2191152 2.75334069 0 0 Z " fill="#989898" transform="translate(498,283)"/>
<path d="M0 0 C6.51819877 1.89536276 12.17814801 4.5178994 18 8 C17.01 8.495 17.01 8.495 16 9 C14.23046875 8.22265625 14.23046875 8.22265625 12.1875 7.0625 C9.47607592 5.60854796 8.31859534 4.9929201 5.1875 5.0625 C4.1046875 5.0315625 4.1046875 5.0315625 3 5 C1.1875 2.5 1.1875 2.5 0 0 Z " fill="#A0A0A0" transform="translate(387,90)"/>
<path d="M0 0 C0 2 0 4 0 6 C-0.86625 6.391875 -1.7325 6.78375 -2.625 7.1875 C-6.25871505 9.13893957 -8.91700883 11.28403159 -12 14 C-10.41332422 10.09714233 -7.86649519 7.66479018 -4.875 4.75 C-3.96492187 3.85796875 -3.05484375 2.9659375 -2.1171875 2.046875 C-1.41851562 1.37140625 -0.71984375 0.6959375 0 0 Z " fill="#A0A0A0" transform="translate(197,125)"/>
<path d="M0 0 C1.0625 1.8125 1.0625 1.8125 2 4 C1.67 4.99 1.34 5.98 1 7 C0.34 7 -0.32 7 -1 7 C-1 8.65 -1 10.3 -1 12 C-3 10 -3 10 -3.3125 6.5625 C-3 3 -3 3 -1.5 1.0625 C-1.005 0.711875 -0.51 0.36125 0 0 Z " fill="#5B5B5B" transform="translate(34,282)"/>
<path d="M0 0 C-2.93307024 1.95538016 -5.14142772 2.79298747 -8.5 3.75 C-9.93859375 4.17539063 -9.93859375 4.17539063 -11.40625 4.609375 C-14 5 -14 5 -17 3 C-5.47835991 -0.44419134 -5.47835991 -0.44419134 0 0 Z " fill="#878787" transform="translate(311,133)"/>
<path d="M0 0 C0.33 0 0.66 0 1 0 C0.67 6.6 0.34 13.2 0 20 C-0.33 20 -0.66 20 -1 20 C-1.33 14.39 -1.66 8.78 -2 3 C-2.66 2.67 -3.32 2.34 -4 2 C-3.01 2 -2.02 2 -1 2 C-0.67 1.34 -0.34 0.68 0 0 Z " fill="#A0A0A0" transform="translate(158,232)"/>
<path d="M0 0 C6.16618181 -0.40214229 11.17745757 1.03181664 17 3 C14.37251466 4.75589819 13.20958328 5.02746832 10.01953125 4.609375 C8.96121094 4.32578125 7.90289062 4.0421875 6.8125 3.75 C5.21341797 3.34007813 5.21341797 3.34007813 3.58203125 2.921875 C1 2 1 2 0 0 Z " fill="#787878" transform="translate(361,83)"/>
<path d="M0 0 C0.33 0 0.66 0 1 0 C1.33872513 1.41538717 1.67074624 2.83237963 2 4.25 C2.185625 5.03890625 2.37125 5.8278125 2.5625 6.640625 C3 9 3 9 3 13 C2.01 12.67 1.02 12.34 0 12 C-0.19573608 10.56359829 -0.38127816 9.12580496 -0.5625 7.6875 C-0.66691406 6.88699219 -0.77132812 6.08648437 -0.87890625 5.26171875 C-1 3 -1 3 0 0 Z " fill="#888888" transform="translate(160,289)"/>
<path d="M0 0 C-1.62170379 1.00533667 -3.24747237 2.00411907 -4.875 3 C-6.23238281 3.8353125 -6.23238281 3.8353125 -7.6171875 4.6875 C-10 6 -10 6 -12 6 C-10.90012224 2.70036671 -10.54413252 2.38935228 -7.6875 0.75 C-7.09324219 0.39421875 -6.49898438 0.0384375 -5.88671875 -0.328125 C-3.5508436 -1.15994803 -2.30725794 -0.7945524 0 0 Z " fill="#898989" transform="translate(417,411)"/>
<path d="M0 0 C0.66 0 1.32 0 2 0 C4 4.75 4 4.75 4 7 C0.54074837 5.7508258 -2.14693203 4.32472205 -5 2 C-2 1 -2 1 0 1 C0 0.67 0 0.34 0 0 Z " fill="#696969" transform="translate(347,274)"/>
<path d="M0 0 C0.66 0.33 1.32 0.66 2 1 C2 1.99 2 2.98 2 4 C1.34 4 0.68 4 0 4 C-0.33 4.99 -0.66 5.98 -1 7 C-1.66 7 -2.32 7 -3 7 C-3.33 8.32 -3.66 9.64 -4 11 C-5 9 -5 9 -4.51171875 7.08984375 C-4.10373047 6.02443359 -4.10373047 6.02443359 -3.6875 4.9375 C-3.42324219 4.22464844 -3.15898437 3.51179687 -2.88671875 2.77734375 C-2 1 -2 1 0 0 Z " fill="#676767" transform="translate(156,185)"/>
<path d="M0 0 C4.23412942 1.51218908 5.69260682 4.27839809 8 8 C8.98866506 9.34175973 9.9838154 10.67896002 11 12 C7.3571729 10.52513858 5.59170887 8.55477485 3.25 5.4375 C2.63640625 4.63183594 2.0228125 3.82617188 1.390625 2.99609375 C0 1 0 1 0 0 Z " fill="#9A9A9A" transform="translate(253,353)"/>
<path d="M0 0 C3.33333333 3.33333333 6.66666667 6.66666667 10 10 C7.25 9.9375 7.25 9.9375 4 9 C1.82922321 6.38191163 0 3.48512002 0 0 Z " fill="#7D7D7D" transform="translate(273,220)"/>
<path d="M0 0 C-0.54226981 3.79588866 -2.20127563 5.47211993 -5 8 C-5.75 6.25 -5.75 6.25 -6 4 C-2.77777778 0 -2.77777778 0 0 0 Z " fill="#676767" transform="translate(186,139)"/>
<path d="M0 0 C1.32 0.33 2.64 0.66 4 1 C2.71283353 2.00578589 1.42011342 3.00446798 0.125 4 C-0.95394531 4.8353125 -0.95394531 4.8353125 -2.0546875 5.6875 C-4 7 -4 7 -6 7 C-5.67 6.01 -5.34 5.02 -5 4 C-4.01 4 -3.02 4 -2 4 C-1.34 2.68 -0.68 1.36 0 0 Z " fill="#808080" transform="translate(367,365)"/>
<path d="M0 0 C0.33 1.32 0.66 2.64 1 4 C1.66 4 2.32 4 3 4 C3 7.3 3 10.6 3 14 C1.18751015 10.3750203 0.68111085 8.62740416 0.375 4.75 C0.30023438 3.85796875 0.22546875 2.9659375 0.1484375 2.046875 C0.09945312 1.37140625 0.05046875 0.6959375 0 0 Z " fill="#838383" transform="translate(143,289)"/>
<path d="M0 0 C0 0.66 0 1.32 0 2 C-2.97 2.66 -5.94 3.32 -9 4 C-9.33 3.34 -9.66 2.68 -10 2 C-6.38026598 0.68373308 -3.90432869 0 0 0 Z " fill="#8C8C8C" transform="translate(269,85)"/>
<path d="M0 0 C3.3 0.99 6.6 1.98 10 3 C10 3.33 10 3.66 10 4 C7.03 4 4.06 4 1 4 C1 3.34 1 2.68 1 2 C0.34 1.67 -0.32 1.34 -1 1 C-0.67 0.67 -0.34 0.34 0 0 Z " fill="#616161" transform="translate(334,147)"/>
<path d="M0 0 C5.53846154 0.61538462 5.53846154 0.61538462 7.875 2.5625 C8.431875 3.2740625 8.431875 3.2740625 9 4 C5.20442119 4 3.37097383 3.49821059 0 2 C0 1.34 0 0.68 0 0 Z " fill="#686868" transform="translate(405,100)"/>
<path d="M0 0 C2.64 0.66 5.28 1.32 8 2 C8 2.66 8 3.32 8 4 C5.36 3.67 2.72 3.34 0 3 C0 2.01 0 1.02 0 0 Z " fill="#656565" transform="translate(275,430)"/>
<path d="M0 0 C2.9375 1.1875 2.9375 1.1875 6 3 C6.875 5.6875 6.875 5.6875 7 8 C6.01 7.34 5.02 6.68 4 6 C4 5.34 4 4.68 4 4 C2.68 3.34 1.36 2.68 0 2 C0 1.34 0 0.68 0 0 Z " fill="#8C8C8C" transform="translate(180,371)"/>
<path d="M0 0 C2.64 0 5.28 0 8 0 C7.67 1.32 7.34 2.64 7 4 C4.97954558 3.39816251 2.97888961 2.72693904 1 2 C0.67 1.34 0.34 0.68 0 0 Z " fill="#838383" transform="translate(227,412)"/>
<path d="M0 0 C0.66 0 1.32 0 2 0 C1.75 1.875 1.75 1.875 1 4 C-1.0625 5.25 -1.0625 5.25 -3 6 C-2.42655063 3.13275314 -2.1385485 2.1385485 0 0 Z " fill="#6F6F6F" transform="translate(442,387)"/>
<path d="M0 0 C0.99 0.99 1.98 1.98 3 3 C2.67 3.99 2.34 4.98 2 6 C-0.0625 6.6875 -0.0625 6.6875 -2 7 C-1.34 4.69 -0.68 2.38 0 0 Z " fill="#7B7B7B" transform="translate(473,314)"/>
<path d="M0 0 C1.65 0 3.3 0 5 0 C5.33 0.99 5.66 1.98 6 3 C8.00016466 4.20882096 8.00016466 4.20882096 10 5 C5.75354935 5 3.61475228 3.18249194 0 1 C0 0.67 0 0.34 0 0 Z " fill="#414141" transform="translate(283,249)"/>
<path d="M0 0 C1.9375 0.3125 1.9375 0.3125 4 1 C4.33 1.99 4.66 2.98 5 4 C4.01 4.33 3.02 4.66 2 5 C1.34 4.34 0.68 3.68 0 3 C0 2.01 0 1.02 0 0 Z " fill="#595959" transform="translate(204,393)"/>
<path d="M0 0 C1 2 1 2 0.44140625 4.1640625 C0.15136719 4.97617187 -0.13867188 5.78828125 -0.4375 6.625 C-0.72496094 7.44226563 -1.01242188 8.25953125 -1.30859375 9.1015625 C-1.53675781 9.72804688 -1.76492187 10.35453125 -2 11 C-2.33 11 -2.66 11 -3 11 C-3.36923077 3.49230769 -3.36923077 3.49230769 -1.5 1 C-1.005 0.67 -0.51 0.34 0 0 Z " fill="#6D6D6D" transform="translate(253,338)"/>
<path d="M0 0 C5.625 -0.25 5.625 -0.25 9 2 C9 2.66 9 3.32 9 4 C6.03 3.01 3.06 2.02 0 1 C0 0.67 0 0.34 0 0 Z " fill="#757575" transform="translate(333,272)"/>
<path d="M0 0 C1.67542976 0.28604898 3.34385343 0.61781233 5 1 C3.6875 2.5 3.6875 2.5 2 4 C1.01 4 0.02 4 -1 4 C-1 1 -1 1 0 0 Z " fill="#7B7B7B" transform="translate(18,250)"/>
<path d="M0 0 C0.99 0.33 1.98 0.66 3 1 C3.33 3.64 3.66 6.28 4 9 C3.67 8.01 3.34 7.02 3 6 C2.34 6 1.68 6 1 6 C0.67 4.02 0.34 2.04 0 0 Z " fill="#8B8B8B" transform="translate(492,208)"/>
<path d="M0 0 C1.98 0 3.96 0 6 0 C6 2.31 6 4.62 6 7 C1.125 2.25 1.125 2.25 0 0 Z " fill="#808080" transform="translate(446,154)"/>
<path d="M0 0 C0.86625 0.3403125 0.86625 0.3403125 1.75 0.6875 C0.76 1.0175 -0.23 1.3475 -1.25 1.6875 C-1.25 2.3475 -1.25 3.0075 -1.25 3.6875 C-2.9 3.3575 -4.55 3.0275 -6.25 2.6875 C-2.80384615 -0.38942308 -2.80384615 -0.38942308 0 0 Z " fill="#797979" transform="translate(290.25,138.3125)"/>
</svg>
